<svg xmlns="http://www.w3.org/2000/svg" viewBox="0 0 192 192">
  <rect width="192" height="192" rx="40" fill="#0d0d1a"/>
  <rect width="192" height="192" rx="40" fill="url(#bg)"/>
  <defs>
    <linearGradient id="bg" x1="0" y1="0" x2="192" y2="192" gradientUnits="userSpaceOnUse">
      <stop offset="0%" stop-color="#1a1a35"/>
      <stop offset="100%" stop-color="#0d0d1a"/>
    </linearGradient>
    <linearGradient id="trophy" x1="60" y1="40" x2="132" y2="150" gradientUnits="userSpaceOnUse">
      <stop offset="0%" stop-color="#a78bfa"/>
      <stop offset="100%" stop-color="#7C3AED"/>
    </linearGradient>
  </defs>
  <!-- Trophy icon -->
  <path d="M70 50 L122 50 L122 100 Q122 130 96 138 Q70 130 70 100 Z" fill="url(#trophy)"/>
  <path d="M50 55 L70 55 L70 85 Q50 85 50 65 Z" fill="#7C3AED" opacity="0.7"/>
  <path d="M122 55 L142 55 L142 65 Q142 85 122 85 L122 55 Z" fill="#7C3AED" opacity="0.7"/>
  <rect x="82" y="138" width="28" height="10" rx="3" fill="#a78bfa"/>
  <rect x="72" y="148" width="48" height="8" rx="4" fill="#7C3AED"/>
  <!-- Stars -->
  <circle cx="96" cy="82" r="12" fill="white" opacity="0.9"/>
  <text x="96" y="87" text-anchor="middle" font-size="14" fill="#7C3AED" font-weight="bold">TG</text>
</svg>
